<svg xmlns="http://www.w3.org/2000/svg" width="18.843" height="16.94" viewBox="0 0 18.843 16.94">
  <path class="cls-1" d="M607.658,3599.66c-0.172.84-.283,1.25-0.934,1.3a0.351,0.351,0,0,0-.316.3,0.345,0.345,0,0,0,.21.37,6.246,6.246,0,0,0,2.2.43h0a3.31,3.31,0,0,0,3.434-2.73l-2.239-2.25A2.673,2.673,0,0,0,607.658,3599.66Zm11.893-9.92a0.462,0.462,0,0,0-.337-0.14c-0.2,0-.726,0-3.932,2.73-1.481,1.27-3.188,2.83-4.546,4.15l2.124,2.15c1.4-1.46,3.027-3.28,4.322-4.84,0.819-.99,1.448-1.8,1.871-2.42C619.612,3590.55,619.858,3590.05,619.551,3589.74Zm-8.136,12.5a4.522,4.522,0,0,1-2.595.75,7.262,7.262,0,0,1-2.557-.5,1.277,1.277,0,0,1,.35-2.45c0.05-.15.1-0.42,0.135-0.57a4.916,4.916,0,0,1,.717-1.92,3.43,3.43,0,0,1,2.25-1.37c0.569-.56,1.219-1.18,1.9-1.81a1.2,1.2,0,0,1-.814-0.64,1.164,1.164,0,0,1,.551-1.56,1.185,1.185,0,0,1,1.576.54,1.233,1.233,0,0,1,.107.36c0.562-.51,1.121-0.99,1.648-1.44,0-.01.006-0.01,0.009-0.01a8.544,8.544,0,0,0-7.6-4.6h0a8.454,8.454,0,0,0-3.988,1.14,3.965,3.965,0,0,0-2.286,3.27,3.005,3.005,0,0,0,1.521,2.63,1.543,1.543,0,0,1,0,2.88,2.991,2.991,0,0,0-1.519,2.63,3.97,3.97,0,0,0,2.287,3.26,8.372,8.372,0,0,0,3.99,1.15h0a8.523,8.523,0,0,0,6.04-2.48,8.418,8.418,0,0,0,2.337-4.32c-0.809.89-1.625,1.77-2.354,2.51A4.415,4.415,0,0,1,611.415,3602.24Zm-4.153-11.7a1.181,1.181,0,1,1,.889,1.4A1.176,1.176,0,0,1,607.262,3590.54Zm-3.831,2.15a1.169,1.169,0,0,1,.187-1.65,1.187,1.187,0,0,1,1.659.19,1.172,1.172,0,0,1-.187,1.65A1.187,1.187,0,0,1,603.431,3592.69Zm0.621,7.73a1.17,1.17,0,0,1-.188-1.65,1.186,1.186,0,0,1,1.66-.18,1.159,1.159,0,0,1,.187,1.64A1.187,1.187,0,0,1,604.052,3600.42Z" transform="translate(-600.813 -3587.03)"/>
</svg>
