<svg xmlns="http://www.w3.org/2000/svg" width="45" height="45" viewBox="0 0 45 45">
  <defs>
    <style>
      .cls-1 {
        fill: #fff;
        fill-rule: evenodd;
      }
    </style>
  </defs>
  <path id="ico-8" class="cls-1" d="M1034.65,2069.82l0.39,0.23v2.45l-1.77.44,4.09,2.39-0.03,1.43-0.06.22,2.42-.53v-0.58a3.845,3.845,0,0,1,1.11-2.7l-2.66-.67v-2.45l0.38-.23a3.89,3.89,0,0,0,1.95-3.35v-1.36a4.012,4.012,0,0,0-3.76-4.07,3.818,3.818,0,0,0-2.82,1.09,3.858,3.858,0,0,0-1.18,2.78v1.56A3.88,3.88,0,0,0,1034.65,2069.82Zm5.78-8.66a10.073,10.073,0,0,1,17.11-.05l0.09-.09a5.224,5.224,0,0,1,1.64-1.09l0.88-2.06-2.48-2.48-2.18,1.42-0.42-.26a11.427,11.427,0,0,0-3.35-1.39l-0.48-.11-0.54-2.55h-3.4l-0.54,2.55-0.47.11a11.374,11.374,0,0,0-3.36,1.39l-0.42.26-2.18-1.42-2.48,2.48,0.87,2.07A5.575,5.575,0,0,1,1040.43,2061.16Zm-13.93,9.18v14.19l3.33,1.11,2.82-11.27Zm31.81,0.58a5.444,5.444,0,0,1-2.33-4.45v-1.56a5.377,5.377,0,0,1,.57-2.41,8.521,8.521,0,0,0-15.13.06,5.765,5.765,0,0,1,.6,2.55v1.36a5.444,5.444,0,0,1-2.33,4.45v0.37l3.1,0.78,3.11-.78v-0.37a5.444,5.444,0,0,1-2.33-4.45v-1.56a5.432,5.432,0,0,1,5.6-5.42,5.566,5.566,0,0,1,5.26,5.62v1.36a5.444,5.444,0,0,1-2.33,4.45v0.37l3.11,0.78,3.1-.78v-0.37Zm-22.5,5.3-1.77-1.03-2.73,10.94,1.52,0.51h0.07l2.91-10.2v-0.22Zm7.19-2.61a2.333,2.333,0,0,0-1.76,2.26v0.23l0.45-.1a9.642,9.642,0,0,1,4.97.23l3.51,1.12a4.916,4.916,0,0,1,1.15.17l4.77,1.36h0.48l0.19-.1v-2.91a2.333,2.333,0,0,0-1.76-2.26l-4.45-1.11v-2.45l0.39-.23a3.9,3.9,0,0,0,1.94-3.35v-1.36a4.012,4.012,0,0,0-3.76-4.07,3.818,3.818,0,0,0-2.82,1.09,3.858,3.858,0,0,0-1.18,2.78v1.56a3.88,3.88,0,0,0,1.94,3.35l0.39,0.23v2.45Zm14.53-8.7v1.56a3.9,3.9,0,0,0,1.94,3.35l0.39,0.23v2.45l-2.66.67a3.845,3.845,0,0,1,1.11,2.7v2.09l8.53-4.49-3.87-.97-0.01-2.45,0.39-.23a3.88,3.88,0,0,0,1.94-3.35v-1.36a4.005,4.005,0,0,0-3.76-4.07,3.818,3.818,0,0,0-2.82,1.09A3.858,3.858,0,0,0,1057.53,2064.91Zm-6.83,18.25a1.6,1.6,0,0,0-1.86-.18l-2.89,1.73a2.505,2.505,0,0,1-1.33.38,2.6,2.6,0,0,1-2.6-2.6v-0.16a2.58,2.58,0,0,1,1.43-2.32l3.88-1.94-1.14-.36a7.977,7.977,0,0,0-4.17-.19l-5.23,1.16-2.09,7.31,2.38,1.43a2.746,2.746,0,0,1,.22-0.26l1.36-1.37a23.214,23.214,0,0,1,8.78,6.29,2.393,2.393,0,0,1,2.08,1.35l1.73,1.45a1.342,1.342,0,0,0,.82.29,0.809,0.809,0,0,0,.52-1.43l-4.09-3.4,1-1.2,4.21,3.51a0.778,0.778,0,0,0,.52.19h0.17a0.813,0.813,0,0,0,.81-0.81,0.83,0.83,0,0,0-.29-0.62l-4.09-3.4,0.99-1.19,4.21,3.5a0.813,0.813,0,0,0,.53.2h0.14a0.837,0.837,0,0,0,.83-0.84,0.847,0.847,0,0,0-.27-0.62Zm6.25-2.73-1.18-.03-4.88-1.39a3.355,3.355,0,0,0-2.41.22l-4.33,2.17a1.028,1.028,0,0,0-.58.93v0.16a1.048,1.048,0,0,0,1.05,1.04,1.076,1.076,0,0,0,.53-0.14l2.89-1.74a3.143,3.143,0,0,1,1.61-.44,3.1,3.1,0,0,1,2.09.8l6.55,5.9a0.864,0.864,0,0,1,.14.13l13.07-6.54v-8.73Zm-7.39,15.05a2.55,2.55,0,0,1-.49.72l-0.59.58,0.58,0.51a0.781,0.781,0,0,0,.54.21h0.14a0.813,0.813,0,0,0,.81-0.81,0.782,0.782,0,0,0-.29-0.62Zm-2.21-1.86a0.88,0.88,0,0,0-.61.25l-1.36,1.37a0.832,0.832,0,0,0-.26.61,0.871,0.871,0,0,0,.87.87,0.9,0.9,0,0,0,.62-0.25l1.36-1.37A0.87,0.87,0,0,0,1047.35,2093.62Zm-3.78-3.79a0.871,0.871,0,0,0-.87-0.87,0.914,0.914,0,0,0-.62.26l-1.36,1.36a0.886,0.886,0,0,0-.25.62,0.871,0.871,0,0,0,.87.87,0.891,0.891,0,0,0,.61-0.26l1.36-1.36A0.854,0.854,0,0,0,1043.57,2089.83Zm2.33,2.33a0.871,0.871,0,0,0-.87-0.87,0.854,0.854,0,0,0-.62.26l-1.36,1.36a0.891,0.891,0,0,0-.26.61,0.871,0.871,0,0,0,.87.87,0.886,0.886,0,0,0,.62-0.25l1.36-1.36A0.914,0.914,0,0,0,1045.9,2092.16Zm-4.66-4.65a0.87,0.87,0,0,0-1.48-.62l-1.37,1.37a0.87,0.87,0,0,0,1.23,1.23l1.37-1.37A0.862,0.862,0,0,0,1041.24,2087.51Z" transform="translate(-1026.5 -2052.5)"/>
</svg>
