<svg xmlns="http://www.w3.org/2000/svg" width="43.938" height="39.97" viewBox="0 0 43.938 39.97">
  <defs>
    <style>
      .cls-1 {
        fill: #fff;
        fill-rule: evenodd;
      }
    </style>
  </defs>
  <path id="ico-7" class="cls-1" d="M941.914,1993.82a2.314,2.314,0,0,0,.582,1.27c0.566,3.77,3.718,7.27,6.6,7.27,3.359,0,6.418-3.79,7.006-7.26a2.294,2.294,0,0,0,.594-1.28c0.191-.7.437-1.93,0.006-2.51a0.514,0.514,0,0,1-.07-0.08c0.406-1.48.918-4.54-.916-6.63a6.856,6.856,0,0,0-3.393-2.08l-1.05-.36a15.536,15.536,0,0,0-2.866-.66,0.621,0.621,0,0,0-.235.02,1.441,1.441,0,0,1-.426.05,2.952,2.952,0,0,0-1.146.19c-0.143.06-3.5,1.4-4.513,4.52-0.1.26-.5,1.58,0.04,4.84a0.8,0.8,0,0,0-.216.2C941.474,1991.89,941.72,1993.12,941.914,1993.82Zm13.412,23.76c-0.619-.35-1.291-0.68-2.008-1-0.348-.15-0.7-0.3-1.051-0.44-0.274-.1-0.6-0.23-0.826-0.29l-3.323-.9,6.216-12.65,2.665,1.68c0.563,0.35.977,0.65,1.431,0.99l0.1,0.07q0.677,0.495,1.328,1.02c0.944,0.77,1.779,1.51,2.555,2.28,0.059,0.06.115,0.11,0.174,0.17,0.26-.29.515-0.54,0.77-0.82a10.921,10.921,0,0,0-1.2-2.58,5.321,5.321,0,0,0-2.3-1.55s-0.138-.04-0.348-0.11a24.984,24.984,0,0,0-2.812-1.11c-0.294-.11-0.552-0.21-0.785-0.31a3.928,3.928,0,0,1-1.963-1.55s0.566,5.47-4.222,5.6l-0.666-.03c-4.34-.38-4.628-5.58-4.628-5.58-0.454,1.42-5.911,3.08-5.911,3.08a5.308,5.308,0,0,0-2.308,1.56c-2.4,3.56-2.681,11.47-2.681,11.47,0.031,1.81.812,1.99,0.812,1.99,5.516,2.46,14.169,2.9,14.169,2.9,0.468,0.01.9-.02,1.337-0.04l0.011,0.04a59.63,59.63,0,0,0,8.653-1.18l-0.541-.71A9.091,9.091,0,0,0,955.326,2017.58Zm-1.574-16.87c0.059-.07.123-0.15,0.185-0.23a0.524,0.524,0,0,1-.017-0.08C953.867,2000.51,953.805,2000.6,953.752,2000.71Zm-9.306-.25-0.014-.06-0.011.06c0-.01.014-0.02,0.017-0.03A0.188,0.188,0,0,1,944.446,2000.46Zm27.963,2.54a40.329,40.329,0,0,0-4.432,3.68c-1.4,1.33-2.723,2.73-4,4.17-0.473.54-.932,1.08-1.389,1.63a0.135,0.135,0,0,1-.014-0.03,21.812,21.812,0,0,0-2.157-2.44c-0.756-.75-1.541-1.43-2.348-2.09-0.406-.32-0.815-0.64-1.232-0.96-0.434-.31-0.815-0.59-1.347-0.93l-3.312,6.73c0.3,0.09.743,0.26,1.115,0.4,0.4,0.15.782,0.32,1.168,0.49,0.774,0.34,1.527.71,2.247,1.11a11.834,11.834,0,0,1,3.5,2.75l2.547,3.34,1.465-3.18c0.737-1.59,1.619-3.25,2.524-4.83,0.913-1.6,1.888-3.16,2.944-4.67a38.686,38.686,0,0,1,3.454-4.32,17.353,17.353,0,0,1,4.331-3.46A17.921,17.921,0,0,0,972.409,2003Z" transform="translate(-933.531 -1981.5)"/>
</svg>
