<svg xmlns="http://www.w3.org/2000/svg" width="43.188" height="45" viewBox="0 0 43.188 45">
  <defs>
    <style>
      .cls-1 {
        fill: #fff;
        fill-rule: evenodd;
      }
    </style>
  </defs>
  <path id="ico-9" class="cls-1" d="M936.835,2132.18a1.248,1.248,0,1,0,1.759-1.77l-3.1-3.1a1.251,1.251,0,1,0-1.768,1.77Zm0,20.82-3.1,3.11a1.248,1.248,0,0,0,1.759,1.77l3.1-3.11a1.249,1.249,0,0,0,0-1.77A1.236,1.236,0,0,0,936.835,2153Zm23.451-20.45a1.251,1.251,0,0,0,.879-0.36l3.1-3.1a1.249,1.249,0,0,0,0-1.77,1.231,1.231,0,0,0-1.769,0l-3.1,3.1a1.248,1.248,0,0,0,0,1.77A1.272,1.272,0,0,0,960.286,2132.55ZM949,2127.87a1.247,1.247,0,0,0,1.25-1.25v-4.38a1.25,1.25,0,0,0-2.5,0v4.38A1.247,1.247,0,0,0,949,2127.87Zm-14.711,14.72a1.254,1.254,0,0,0-1.25-1.25H928.66a1.25,1.25,0,1,0,0,2.5h4.379A1.242,1.242,0,0,0,934.289,2142.59Zm35.051-1.25h-4.379a1.25,1.25,0,0,0,0,2.5h4.379A1.25,1.25,0,1,0,969.34,2141.34ZM961.165,2153a1.251,1.251,0,0,0-1.768,1.77l3.1,3.11a1.248,1.248,0,0,0,1.759-1.77Zm-12.239-21.49a11.1,11.1,0,0,0-7.916,18.78,10.279,10.279,0,0,1,2.741,5.54,1.816,1.816,0,0,0,1.805,1.54h6.879a1.835,1.835,0,0,0,1.814-1.55,10.158,10.158,0,0,1,2.722-5.52A11.089,11.089,0,0,0,948.926,2131.51Zm-1.829,17.81-5.164-5.95,0.808-.89,4.356,2.11,8.284-6.82,0.709,0.76Zm5.764,9.73H945.13a1.268,1.268,0,0,0-1.268,1.27v1.32a2.089,2.089,0,0,0,1.777,2.07l0.315,1.2a1.483,1.483,0,0,0,1.435,1.1H950.6a1.483,1.483,0,0,0,1.435-1.1l0.324-1.2a2.087,2.087,0,0,0,1.768-2.06v-1.32A1.283,1.283,0,0,0,952.861,2159.05Z" transform="translate(-927.406 -2121)"/>
</svg>
