<svg xmlns="http://www.w3.org/2000/svg" width="40" height="40" viewBox="0 0 40 40">
  <defs>
    <style>
      .cls-1 {
        fill: #fff;
        fill-rule: evenodd;
      }
    </style>
  </defs>
  <path id="ico-5" class="cls-1" d="M967.514,1876.7a33.365,33.365,0,0,0-9.773-3.74l0.3-.4a0.685,0.685,0,0,0,.108-0.56l-0.62-2.47a14.243,14.243,0,0,0,2.638-8.03v-2.67h2a0.659,0.659,0,0,0,.666-0.66,0.668,0.668,0,0,0-.666-0.67H961.5v-0.67a11.449,11.449,0,0,0-1.221-5.16l-5.984,1.15a0.551,0.551,0,0,1-.126.02,0.653,0.653,0,0,1-.47-0.2,0.673,0.673,0,0,1-.184-0.6l1.093-5.73a11.615,11.615,0,0,0-1.772-.65v-0.14a2.011,2.011,0,0,0-2.01-2.01h-2.644a2.011,2.011,0,0,0-2.01,2.01v0.14a11.564,11.564,0,0,0-1.771.65l1.093,5.73a0.676,0.676,0,0,1-.184.6,0.655,0.655,0,0,1-.471.2,0.551,0.551,0,0,1-.126-0.02l-5.984-1.15a11.473,11.473,0,0,0-1.221,5.17v0.66h-0.667a0.668,0.668,0,0,0-.666.67,0.659,0.659,0,0,0,.666.66h2v2.67a14.257,14.257,0,0,0,2.637,8.03l-0.618,2.47a0.682,0.682,0,0,0,.108.56l0.3,0.4a33.355,33.355,0,0,0-9.773,3.74,3.694,3.694,0,0,0-1.981,3.28v2.85a0.667,0.667,0,0,0,.667.66h38.654a0.666,0.666,0,0,0,.667-0.66v-2.85A3.7,3.7,0,0,0,967.514,1876.7Zm-27.345-15.2v-2.67H958.83v2.67a12.238,12.238,0,0,1-2.632,7.62c-0.023.03-.054,0.04-0.074,0.07-0.229.29-.466,0.57-0.71,0.83h0c-0.162.17-.331,0.32-0.5,0.48a7.449,7.449,0,0,1-10.823,0c-0.167-.16-0.336-0.31-0.5-0.48h0c-0.244-.26-0.481-0.54-0.711-0.83-0.02-.03-0.05-0.04-0.073-0.07A12.245,12.245,0,0,1,940.169,1861.5Zm2.056,10.52,0.3-1.19h0a9.805,9.805,0,0,0,5.97,3.27h0l-1.809,4.07Zm4.756,10.14,0.4-2h4.239l0.169,0.85,0.23,1.15h-5.038Zm5.325-3.99-1.808-4.07h0a9.81,9.81,0,0,0,5.971-3.27h0l0.3,1.19Zm3.531-31.22L955,1851.33l4.561-.88A11.717,11.717,0,0,0,955.837,1846.95Zm-12.674,0a11.717,11.717,0,0,0-3.727,3.5l4.561,0.88Z" transform="translate(-929.5 -1843.5)"/>
</svg>
