<svg xmlns="http://www.w3.org/2000/svg" width="50" height="29.12" viewBox="0 0 50 29.12">
  <defs>
    <style>
      .cls-1 {
        fill: #fff;
        fill-rule: evenodd;
      }
    </style>
  </defs>
  <path id="ico-1" class="cls-1" d="M936.581,1571.22c-1.667-1.66-8.751-2.08-11.043-2.29a0.763,0.763,0,0,0-.626.21,1.607,1.607,0,0,0-.416.83v18.73a0.98,0.98,0,0,0,1.042,1.04h6.251a1.155,1.155,0,0,0,1.042-.62c0-.63,3.75-11.65,4.167-17.06A0.841,0.841,0,0,0,936.581,1571.22Zm22.295,5c-2.083-.63-3.959-1.46-5.625-2.08-3.751-1.67-5.418-.84-8.752,2.49-1.459,1.46-2.5,3.54-2.292,4.37,0,0.21,0,.21.417,0.42,1.042,0.42,2.5.62,3.959-1.67a1.1,1.1,0,0,1,.833-0.41,3.842,3.842,0,0,0,1.459-.42,10.161,10.161,0,0,1,1.458-.62h0.417c0.208,0,.625.21,0.833,0.21,1.042,1.04,2.918,2.49,4.793,4.16a47.411,47.411,0,0,1,7.293,6.66h0.208C962.419,1585.16,959.918,1578.09,958.876,1576.22Zm14.586-5.2a36.6,36.6,0,0,0-12.919,2.08c-0.208.2-.416,0.41-0.625,0.62a1.241,1.241,0,0,0,.209.83c1.25,2.08,5.417,13.53,6.042,16.44a1.372,1.372,0,0,0,1.042.83h6.251a0.98,0.98,0,0,0,1.042-1.04v-18.72A0.98,0.98,0,0,0,973.462,1571.02Zm-11.252,20.39c-0.833-1.88-4.375-4.58-7.5-7.08-1.667-1.45-3.334-2.7-4.584-3.74a1.5,1.5,0,0,0-.625.41,3.9,3.9,0,0,1-1.667.42c-1.667,2.08-3.751,2.91-6.043,2.08a2.463,2.463,0,0,1-1.875-1.87c-0.417-2.08,1.459-5,2.917-6.45h-4.167a105.858,105.858,0,0,1-3.334,12.48,24.242,24.242,0,0,0,2.292,2.29c3.959,3.33,8.543,6.66,9.377,7.28a5.869,5.869,0,0,0,2.5.83h0.625l-3.334-3.32a1.032,1.032,0,0,1,1.459-1.46l4.167,4.16a1.369,1.369,0,0,0,1.25.21,1.623,1.623,0,0,0,1.042-1.25l-4.792-4.79a1.028,1.028,0,1,1,1.458-1.45l5.209,5.2a2.212,2.212,0,0,0,1.667,0,3.256,3.256,0,0,0,.834-0.83l-5.834-5.83a1.032,1.032,0,0,1,1.458-1.46l6.043,6.04a1.369,1.369,0,0,0,1.25-.21A1.406,1.406,0,0,0,962.21,1591.41Z" transform="translate(-924.5 -1568.94)"/>
</svg>
