<svg xmlns="http://www.w3.org/2000/svg" width="40.03" height="40" viewBox="0 0 40.03 40">
  <defs>
    <style>
      .cls-1 {
        fill: #fff;
        fill-rule: evenodd;
      }
    </style>
  </defs>
  <path id="ico-6" class="cls-1" d="M1061.83,1938.05l-18.42-18.33a0.833,0.833,0,0,0-1.17,0l-3.29,3.29a0.827,0.827,0,0,0,0,1.18l1.07,1.08-5.18,5.18a9.144,9.144,0,0,0-.58,12.25l-5.31,5.31a0.827,0.827,0,0,0,0,1.18l3.33,3.33a0.845,0.845,0,0,0,1.18,0l5.31-5.31a9.082,9.082,0,0,0,12.25-.58l5.18-5.19,1.08,1.08a0.833,0.833,0,0,0,1.17.01l3.38-3.29a0.816,0.816,0,0,0,.25-0.59A0.857,0.857,0,0,0,1061.83,1938.05Zm-4.04-24.38a3.169,3.169,0,0,0-4.5,0l-6.78,6.78,4.52,4.5,6.77-6.77A3.163,3.163,0,0,0,1057.79,1913.67Zm10,10a3.169,3.169,0,0,0-4.5,0l-6.76,6.76,4.52,4.5,6.75-6.75A3.163,3.163,0,0,0,1067.79,1923.67Z" transform="translate(-1028.72 -1912.75)"/>
</svg>
