<svg xmlns="http://www.w3.org/2000/svg" width="17.312" height="15" viewBox="0 0 17.312 15">
  <path class="cls-1" d="M533.982,3590.98a2.231,2.231,0,0,0-1.632-.68h-2.021l-0.46-1.22a1.7,1.7,0,0,0-.626-0.77,1.632,1.632,0,0,0-.934-0.32h-4.618a1.627,1.627,0,0,0-.933.32,1.7,1.7,0,0,0-.627.77l-0.46,1.22H519.65a2.317,2.317,0,0,0-2.309,2.31v8.09a2.3,2.3,0,0,0,2.309,2.3h12.7a2.3,2.3,0,0,0,2.309-2.3v-8.09A2.229,2.229,0,0,0,533.982,3590.98Zm-5.128,8.53a4.027,4.027,0,1,1,1.187-2.86A3.9,3.9,0,0,1,528.854,3599.51ZM526,3594.06a2.6,2.6,0,1,0,1.835.76A2.495,2.495,0,0,0,526,3594.06Z" transform="translate(-517.344 -3588)"/>
</svg>
