<svg xmlns="http://www.w3.org/2000/svg" width="40" height="32" viewBox="0 0 40 32">
  <defs>
    <style>
      .cls-1 {
        fill: #fff;
        fill-rule: evenodd;
      }
    </style>
  </defs>
  <path id="ico-2" class="cls-1" d="M1068.01,1638.46a3.2,3.2,0,0,0-2.35-.98h-33.32a3.346,3.346,0,0,0-3.33,3.34v25.36a3.346,3.346,0,0,0,3.33,3.33h33.32a3.164,3.164,0,0,0,2.35-.98,3.2,3.2,0,0,0,.98-2.35v-25.36A3.241,3.241,0,0,0,1068.01,1638.46Zm-1.69,27.72a0.657,0.657,0,0,1-.19.47,0.641,0.641,0,0,1-.47.19h-33.32a0.641,0.641,0,0,1-.47-0.19,0.668,0.668,0,0,1-.2-0.47v-25.36a0.683,0.683,0,0,1,.67-0.67h33.32a0.651,0.651,0,0,1,.47.2,0.641,0.641,0,0,1,.19.47v25.36h0Zm-27.98-15.35a3.995,3.995,0,1,0-2.83-1.17A3.85,3.85,0,0,0,1038.34,1650.83Zm6,6.01-3.34-3.34-6.66,6.67v4.01h29.32v-9.35l-8.66-8.67Z" transform="translate(-1029 -1637.5)"/>
</svg>
