<svg xmlns="http://www.w3.org/2000/svg" width="40" height="35.85" viewBox="0 0 40 35.85">
  <defs>
    <style>
      .cls-1 {
        fill: #fff;
        fill-rule: evenodd;
      }
    </style>
  </defs>
  <path id="ico-4" class="cls-1" d="M1029.22,1791.03l13.88,18.13a0.736,0.736,0,0,0,1.25-.76l-8.33-18.12a0.735,0.735,0,0,0-.66-0.43h-5.56A0.733,0.733,0,0,0,1029.22,1791.03Zm39.64-3.76-2.62-3.6a0.735,0.735,0,0,0-1.26.13l-1.66,3.6a0.734,0.734,0,0,0,.67,1.04h4.28A0.733,0.733,0,0,0,1068.86,1787.27Zm-37.08-3.62-2.64,3.62a0.733,0.733,0,0,0,.59,1.17h4.31a0.733,0.733,0,0,0,.66-1.04l-1.66-3.63A0.731,0.731,0,0,0,1031.78,1783.65Zm32.52-2.64-1.74-2.38a0.734,0.734,0,0,0-.59-0.3h-9.84a0.74,0.74,0,0,0-.48,1.3c2.98,2.54,7,5.96,9.11,7.76a0.737,0.737,0,0,0,1.14-.26l2.47-5.37A0.724,0.724,0,0,0,1064.3,1781.01Zm-18.39-2.68h-9.88a0.734,0.734,0,0,0-.59.3l-1.72,2.36a0.733,0.733,0,0,0-.08.74l2.48,5.4a0.738,0.738,0,0,0,1.14.26c2.12-1.81,6.18-5.25,9.12-7.76A0.738,0.738,0,0,0,1045.91,1778.33Zm-8.06,12.56,10.49,22.85a0.731,0.731,0,0,0,1.33,0l10.5-22.85a0.731,0.731,0,0,0-.66-1.04h-20.99A0.736,0.736,0,0,0,1037.85,1790.89Zm20.46-3.74c-2.62-2.23-6.37-5.43-8.82-7.52a0.74,0.74,0,0,0-.95,0c-2.4,2.06-6.18,5.27-8.82,7.52a0.731,0.731,0,0,0,.47,1.29h17.65A0.731,0.731,0,0,0,1058.31,1787.15Zm-3.38,21.97,13.85-18.09a0.733,0.733,0,0,0-.58-1.18h-5.53a0.738,0.738,0,0,0-.67.43l-8.32,18.08A0.736,0.736,0,0,0,1054.93,1809.12Z" transform="translate(-1029 -1778.34)"/>
</svg>
