<svg xmlns="http://www.w3.org/2000/svg" width="40" height="40" viewBox="0 0 40 40">
  <defs>
    <style>
      .cls-1 {
        fill: #fff;
        fill-rule: evenodd;
      }
    </style>
  </defs>
  <path id="ico-10" class="cls-1" d="M1046.22,2193.49h6.56a1.268,1.268,0,0,1,.72,1.34c-0.03.71,0,1.42,0,2.15a17.079,17.079,0,0,1,4.86,2l1.6-1.6a1.059,1.059,0,0,1,1.7-.01c1.33,1.32,2.65,2.65,3.98,3.98a1.029,1.029,0,0,1-.02,1.68c-0.53.54-1.06,1.07-1.61,1.61a17.5,17.5,0,0,1,2.02,4.86c0.74,0,1.44.03,2.14-.01a1.255,1.255,0,0,1,1.33.73v6.56a1.248,1.248,0,0,1-1.33.72c-0.71-.03-1.42-0.01-2.09-0.01-0.3.88-.55,1.72-0.89,2.52s-0.74,1.57-1.14,2.39c0.51,0.5,1.05,1.03,1.58,1.57a1.038,1.038,0,0,1,.01,1.69l-3.98,3.98a1.044,1.044,0,0,1-1.69-.01c-0.53-.53-1.06-1.07-1.57-1.58-0.82.4-1.59,0.81-2.39,1.14s-1.66.59-2.52,0.89c0,0.69-.02,1.39.01,2.09a1.248,1.248,0,0,1-.72,1.33h-6.56a1.255,1.255,0,0,1-.73-1.33c0.04-.71.01-1.42,0.01-2.09-0.87-.31-1.7-0.56-2.51-0.89s-1.57-.74-2.39-1.14c-0.5.51-1.03,1.04-1.57,1.57a1.054,1.054,0,0,1-1.69.01l-3.98-3.98a1.038,1.038,0,0,1,.02-1.69c0.53-.53,1.06-1.06,1.61-1.6a17.2,17.2,0,0,1-2.02-4.86c-0.74,0-1.44-.03-2.14,0a1.248,1.248,0,0,1-1.33-.72v-6.56a1.235,1.235,0,0,1,1.33-.72c0.71,0.03,1.42,0,2.14,0a17.3,17.3,0,0,1,2.02-4.86c-0.55-.55-1.09-1.08-1.62-1.61a1.038,1.038,0,0,1-.01-1.69l3.98-3.98a1.038,1.038,0,0,1,1.69.01c0.53,0.53,1.06,1.07,1.61,1.62a17.371,17.371,0,0,1,4.86-2.02c0-.74.03-1.44,0-2.14A1.248,1.248,0,0,1,1046.22,2193.49Zm15.29,20.01a12.01,12.01,0,1,0-12.01,12.01A12.027,12.027,0,0,0,1061.51,2213.5Zm-16.01,9.11a9.934,9.934,0,0,1-5.92-10.46,10,10,0,1,1,13.94,10.46,2.286,2.286,0,0,1-.02-0.25c-0.01-.95-0.01-1.91,0-2.86a0.655,0.655,0,0,1,.19-0.42,6.959,6.959,0,0,0-1.85-12.15,0.982,0.982,0,0,0-1.33.97c-0.01,1.3,0,2.6,0,3.91v0.65h-2.02v-4.42a1.008,1.008,0,0,0-1.5-1.05,6.959,6.959,0,0,0-1.78,12,0.672,0.672,0,0,1,.3.61C1045.49,2220.59,1045.5,2221.58,1045.5,2222.61Zm1.01-13.1v0.57c0,1.09-.01,2.18,0,3.28a1.018,1.018,0,0,0,1.16,1.14q1.815,0.015,3.63,0a1.032,1.032,0,0,0,1.19-1.19c0.01-1.09,0-2.19,0-3.28v-0.51a4.814,4.814,0,0,1,1.76,2.44,4.908,4.908,0,0,1-2.06,5.72,1.3,1.3,0,0,0-.69,1.25c0.02,1.34,0,2.68.01,4.02a0.33,0.33,0,0,1-.33.41,10.646,10.646,0,0,1-3.38,0,0.309,0.309,0,0,1-.31-0.38c0.01-1.35-.01-2.69.01-4.03a1.339,1.339,0,0,0-.69-1.28,4.927,4.927,0,0,1-.81-7.72C1046.13,2209.82,1046.28,2209.7,1046.51,2209.51Z" transform="translate(-1029.5 -2193.5)"/>
</svg>
