<svg xmlns="http://www.w3.org/2000/svg" width="44.5" height="40" viewBox="0 0 44.5 40">
  <defs>
    <style>
      .cls-1 {
        fill: #fff;
        fill-rule: evenodd;
      }
    </style>
  </defs>
  <path id="ico-3" class="cls-1" d="M948.138,1734.3c-0.405,1.99-.668,2.96-2.2,3.08a0.823,0.823,0,0,0-.249,1.58,15.072,15.072,0,0,0,5.191,1h0a7.781,7.781,0,0,0,8.1-6.42l-5.279-5.32C949.234,1728.94,948.6,1732.02,948.138,1734.3Zm28.045-23.39a1.1,1.1,0,0,0-.795-0.31c-0.469,0-1.713,0-9.273,6.44-3.492,2.97-7.517,6.65-10.72,9.78l5.011,5.05c3.293-3.42,7.135-7.72,10.191-11.4,1.929-2.33,3.413-4.25,4.41-5.71C976.327,1712.83,976.905,1711.64,976.183,1710.91ZM957,1740.38a10.489,10.489,0,0,1-6.121,1.77,17.171,17.171,0,0,1-6.029-1.17,3.014,3.014,0,0,1,.825-5.78c0.118-.35.249-0.99,0.319-1.33a11.573,11.573,0,0,1,1.691-4.54,8.1,8.1,0,0,1,5.305-3.22c1.343-1.33,2.875-2.8,4.474-4.28a2.811,2.811,0,0,1-1.919-1.5,2.755,2.755,0,0,1,1.3-3.69,2.8,2.8,0,0,1,3.717,1.29,2.692,2.692,0,0,1,.251.84c1.326-1.19,2.643-2.34,3.887-3.4a0.037,0.037,0,0,1,.022-0.02A20.12,20.12,0,0,0,946.8,1704.5h0a19.743,19.743,0,0,0-9.4,2.7c-3.477,2.05-5.391,4.78-5.39,7.71,0,3.52,1.989,5,3.586,6.18,1.3,0.97,2.331,1.73,2.332,3.41s-1.028,2.43-2.33,3.4c-1.6,1.18-3.584,2.66-3.583,6.19,0,2.92,1.917,5.65,5.394,7.7a19.782,19.782,0,0,0,9.408,2.71h0.006a20.1,20.1,0,0,0,14.242-5.85,19.809,19.809,0,0,0,5.513-10.2c-1.91,2.12-3.833,4.18-5.553,5.94A10.332,10.332,0,0,1,957,1740.38Zm-9.793-27.58a2.784,2.784,0,1,1,2.095,3.3A2.754,2.754,0,0,1,947.205,1712.8Zm-9.034,5.07a2.745,2.745,0,0,1,.44-3.88,2.8,2.8,0,0,1,3.913.44,2.747,2.747,0,0,1-.442,3.88A2.792,2.792,0,0,1,938.171,1717.87Zm1.463,18.23a2.757,2.757,0,0,1-.441-3.89,2.8,2.8,0,0,1,3.912-.43,2.746,2.746,0,0,1,.442,3.88A2.8,2.8,0,0,1,939.634,1736.1Z" transform="translate(-932 -1704.5)"/>
</svg>
