<svg xmlns="http://www.w3.org/2000/svg" width="21.188" height="18" viewBox="0 0 21.188 18">
  <path class="cls-1" d="M862.479,3594.11a2.634,2.634,0,0,0-1.924.8,2.718,2.718,0,0,0,0,3.85A2.722,2.722,0,1,0,862.479,3594.11Zm6.946-8.6a5.176,5.176,0,0,0-5.114,4.43h-1.537l2.217,2.22,2.217-2.22h-1.4a3.7,3.7,0,1,1,.62,2.9l-1.2.86a5.172,5.172,0,1,0,4.2-8.19h0Zm0,11.28a6.1,6.1,0,0,1-2.764-.66,4.488,4.488,0,0,1,.054.7,4.216,4.216,0,1,1-2.243-3.74l0.069-.05-4.033-4.04h3.047a6.052,6.052,0,0,1,.511-1.24h-4.007a1.7,1.7,0,0,0-.979.33,1.775,1.775,0,0,0-.657.8l-0.483,1.29h-2.118a2.422,2.422,0,0,0-2.42,2.42v8.47a2.422,2.422,0,0,0,2.42,2.42h13.314a2.422,2.422,0,0,0,2.421-2.42v-4.66A6.033,6.033,0,0,1,869.425,3596.79Zm-0.739-8.33v3.01l2.207,1.32,0.76-1.27-1.489-.89v-2.17h-1.478Z" transform="translate(-853.406 -3585.5)"/>
</svg>
