<svg xmlns="http://www.w3.org/2000/svg" width="26.625" height="16" viewBox="0 0 26.625 16">
  <path class="cls-1" d="M764.748,3592.1a2.79,2.79,0,1,1-2.793,2.79A2.793,2.793,0,0,1,764.748,3592.1Zm-9.92,7.15v-1.86h1.857v-2.34a8.012,8.012,0,0,1,.747-3.38l-1.36-.64a9.719,9.719,0,0,1,3.344-3.9l0.839,1.24a8.061,8.061,0,0,1,12.556,6.68v4.59a3.037,3.037,0,0,1-3.035,3.03H754.828v-1.86h-7.067V3603h-1.572v-3.75h8.639Zm9.92,0a4.36,4.36,0,1,0-4.365-4.36A4.37,4.37,0,0,0,764.748,3599.25Z" transform="translate(-746.188 -3587)"/>
</svg>
