<svg xmlns="http://www.w3.org/2000/svg" width="17.282" height="15.03" viewBox="0 0 17.282 15.03">
  <path class="cls-1" d="M446.97,3595.24a0.708,0.708,0,0,0-.978-0.25l-2.371,1.37-0.6.35V3600l0.562,0.33c0.02,0,.02.02,0.041,0.02l2.329,1.35a0.605,0.605,0,0,0,.4.13,0.7,0.7,0,0,0,.707-0.71v-2.78l0.02-2.75A0.536,0.536,0,0,0,446.97,3595.24Zm-13.851-1.06a3.35,3.35,0,1,0-3.349-3.35A3.348,3.348,0,0,0,433.119,3594.18Zm0-4.72a1.37,1.37,0,1,1,0,2.74,1.382,1.382,0,0,1-1.373-1.37A1.343,1.343,0,0,1,433.119,3589.46Zm8.485,4.91a3.987,3.987,0,0,1-1.789.43,3.934,3.934,0,0,1-2.163-.64h-2.37a3.934,3.934,0,0,1-2.163.64,3.741,3.741,0,0,1-1.789-.43,1.623,1.623,0,0,0-.811,1.39v5.07a1.684,1.684,0,0,0,1.685,1.68h8.547a1.684,1.684,0,0,0,1.685-1.68v-5.07A1.69,1.69,0,0,0,441.6,3594.37Zm-1.789-.19a3.35,3.35,0,1,0-3.348-3.35A3.349,3.349,0,0,0,439.815,3594.18Zm0-4.72a1.37,1.37,0,1,1-1.372,1.37A1.368,1.368,0,0,1,439.815,3589.46Z" transform="translate(-429.781 -3587.47)"/>
</svg>
